<svg aria-hidden="true" style="position: absolute; width: 0; height: 0; overflow: hidden;" version="1.1" xmlns="http://www.w3.org/2000/svg" xmlns:xlink="http://www.w3.org/1999/xlink">
<defs>
<symbol id="icon-cosmetics" viewBox="0 0 32 32">
<path d="M8.887 12.129h-8.681c-0.267 0-0.483 0.207-0.483 0.462v2.776c0 0.256 0.215 0.463 0.483 0.463h0.482v10.642c0 0.256 0.216 0.463 0.483 0.463h6.751c0.266 0 0.483-0.207 0.483-0.463v-10.642h0.482c0.266 0 0.482-0.207 0.482-0.463v-2.775c0-0.256-0.216-0.464-0.482-0.464zM3.582 20.92v-0.925h2.893v-0.925h-2.893v-0.925h3.858v6.015h-3.857v-2.313h0.965v-0.925h-0.965zM7.44 17.219h-4.34c-0.266 0-0.482 0.207-0.482 0.463v6.94c0 0.256 0.216 0.463 0.482 0.463h4.34v0.925h-5.787v-10.18h5.787v1.388zM8.405 14.905h-7.717v-1.851h7.717v1.851zM15.277 12.216v-3.383c0-0.264-0.216-0.477-0.483-0.477h-0.482v-2.381h0.965v-0.953h-5.305v0.953h3.376v2.381h-0.483c-0.001 0-0.002 0-0.003 0-0.264 0-0.478 0.213-0.479 0.477v3.383c-1.099 0.221-1.929 1.183-1.929 2.333v11.909c0 0.264 0.216 0.477 0.483 0.477h5.787c0.001 0 0.002 0 0.003 0 0.264 0 0.478-0.213 0.479-0.477v-11.909c0-1.149-0.829-2.112-1.928-2.333zM13.348 9.31h0.965v2.858h-0.965v-2.858zM12.865 13.12h1.929c0.798 0 1.447 0.641 1.447 1.429v0.477h-4.822v-0.477c0-0.788 0.649-1.429 1.447-1.429zM16.242 24.076h-4.823v-0.951h1.929v-0.953h-1.929v-6.193h4.822v8.099zM11.419 25.982v-0.953h4.822v0.953h-4.822zM27.605 11.537h-8.138c-0.25 0.004-0.452 0.208-0.452 0.459 0 0.003 0 0.006 0 0.008v-0 14.465c0 0.258 0.202 0.466 0.452 0.466h8.138c0.249 0 0.452-0.209 0.452-0.466v-14.466c0-0.002 0-0.005 0-0.008 0-0.251-0.201-0.455-0.452-0.459h-0zM27.152 26.002h-7.234v-13.532h7.234v13.531z"></path>
<path d="M6.958 21.013h-1.206v0.592h1.206v-0.592zM15.397 22.198h-1.206v1.184h1.206v-1.184zM13.891 21.013c1.163 0 2.109-0.93 2.109-2.073s-0.946-2.073-2.109-2.073c-1.164 0-2.11 0.93-2.11 2.073s0.946 2.073 2.109 2.073zM13.891 17.904c0.581 0 1.055 0.465 1.055 1.036s-0.473 1.036-1.055 1.036c-0.581 0-1.055-0.465-1.055-1.036s0.473-1.036 1.055-1.036zM22.405 16.274h2.26c0.873 0 1.583-0.663 1.583-1.48s-0.71-1.48-1.583-1.48h-2.26c-0.872 0-1.582 0.664-1.582 1.48s0.71 1.48 1.582 1.48zM25.344 14.794c0 0.349-0.304 0.634-0.679 0.634h-0.678v-1.269h0.678c0.374 0 0.679 0.285 0.679 0.635zM22.405 14.16h0.678v1.269h-0.678c-0.374 0-0.679-0.285-0.679-0.634s0.304-0.635 0.679-0.635zM22.405 21.013h2.26c0.873 0 1.583-0.797 1.583-1.776s-0.71-1.777-1.583-1.777h-2.26c-0.872 0-1.582 0.797-1.582 1.776s0.71 1.776 1.582 1.776zM25.344 19.237c0 0.419-0.304 0.761-0.679 0.761h-0.678v-1.522h0.678c0.374 0 0.679 0.342 0.679 0.761zM22.405 18.474h0.678v1.523h-0.678c-0.374 0-0.679-0.342-0.679-0.761s0.304-0.761 0.679-0.761zM22.405 25.159h2.26c0.873 0 1.583-0.797 1.583-1.776s-0.71-1.777-1.583-1.777h-2.26c-0.872 0-1.582 0.797-1.582 1.776s0.71 1.777 1.582 1.777zM25.344 23.382c0 0.419-0.304 0.761-0.679 0.761h-0.678v-1.523h0.678c0.374 0 0.679 0.342 0.679 0.761zM22.405 22.621h0.678v1.523h-0.678c-0.374 0-0.679-0.342-0.679-0.761s0.304-0.761 0.679-0.761z"></path>
</symbol>
<symbol id="icon-crown" viewBox="0 0 32 32">
<path d="M30.932 9.084c-0.259-0.239-0.588-0.404-0.953-0.463l-0.011-0.001c-0.078-0.012-0.167-0.019-0.259-0.019-0.285 0-0.554 0.067-0.792 0.187l0.010-0.005-6.887 3.36c-0.035 0.022-0.078 0.035-0.124 0.035-0.065 0-0.123-0.025-0.167-0.067l0 0c-0.026-0.024-0.047-0.054-0.063-0.086l-0.001-0.002-4.023-7.951c-0.162-0.327-0.399-0.594-0.689-0.789l-0.007-0.005c-0.272-0.182-0.607-0.291-0.967-0.292h-0c-0.36 0.001-0.695 0.11-0.974 0.296l0.006-0.004c-0.298 0.199-0.535 0.467-0.691 0.782l-0.005 0.012-4.022 7.949c-0.016 0.035-0.038 0.064-0.065 0.089l-0 0c-0.025 0.023-0.055 0.042-0.088 0.053l-0.002 0.001c-0.023 0.008-0.049 0.012-0.076 0.012-0.046 0-0.088-0.013-0.125-0.035l0.001 0.001-6.887-3.36c-0.23-0.118-0.501-0.187-0.789-0.187-0.088 0-0.175 0.007-0.26 0.019l0.010-0.001c-0.376 0.058-0.705 0.223-0.965 0.463l0.001-0.001c-0.274 0.253-0.48 0.574-0.591 0.938l-0.004 0.015c-0.063 0.2-0.099 0.43-0.099 0.669 0 0.172 0.019 0.34 0.055 0.502l-0.003-0.015 3.479 16.245c0.058 0.274 0.167 0.533 0.32 0.76s0.345 0.417 0.566 0.56c0.292 0.196 0.627 0.3 0.969 0.3 0.175-0.001 0.349-0.027 0.518-0.075 2.914-0.923 6.265-1.455 9.74-1.455 3.458 0 6.792 0.526 9.928 1.503l-0.236-0.063c0.247 0.079 0.508 0.101 0.764 0.065 0.274-0.038 0.52-0.133 0.734-0.273l-0.007 0.004c0.228-0.149 0.419-0.337 0.566-0.555l0.004-0.007c0.154-0.228 0.265-0.488 0.324-0.764l3.464-16.245c0.036-0.151 0.056-0.325 0.056-0.503 0-0.231-0.034-0.453-0.098-0.663l0.004 0.016c-0.112-0.378-0.317-0.699-0.588-0.949l-0.001-0.001zM29.978 10.764l-3.478 16.244c-0.018 0.079-0.062 0.147-0.122 0.194l-0.001 0.001c-0.043 0.024-0.095 0.038-0.15 0.038-0.024 0-0.048-0.003-0.071-0.008l0.002 0c-3.039-0.961-6.535-1.515-10.159-1.515s-7.12 0.554-10.406 1.582l0.247-0.067c-0.022 0.007-0.048 0.012-0.075 0.012-0.052 0-0.1-0.016-0.14-0.044l0.001 0.001c-0.033-0.022-0.060-0.050-0.081-0.082l-0.001-0.001c-0.021-0.032-0.037-0.069-0.045-0.109l-0-0.002-3.477-16.244c-0.003-0.018-0.005-0.038-0.005-0.059 0-0.074 0.023-0.142 0.063-0.198l-0.001 0.001c0.025-0.035 0.058-0.064 0.095-0.084l0.001-0.001c0.034-0.019 0.075-0.031 0.119-0.033h0l0.109 0.030 6.9 3.375c0.227 0.116 0.494 0.184 0.778 0.184 0.216 0 0.423-0.040 0.614-0.112l-0.012 0.004c0.469-0.183 0.841-0.528 1.055-0.964l0.005-0.011 4.022-7.951c0.021-0.047 0.054-0.086 0.094-0.114l0.001-0.001c0.038-0.026 0.085-0.042 0.136-0.042s0.098 0.016 0.137 0.043l-0.001-0.001c0.042 0.029 0.074 0.068 0.095 0.113l0.001 0.002 4.022 7.95c0.23 0.46 0.609 0.809 1.061 0.976s0.945 0.14 1.38-0.076l6.9-3.375c0.033-0.017 0.071-0.027 0.112-0.027 0.068 0 0.129 0.027 0.174 0.070l-0-0c0.040 0.036 0.070 0.082 0.087 0.134l0.001 0.002c0.010 0.030 0.015 0.064 0.015 0.099 0 0.023-0.002 0.046-0.007 0.067l0-0.002zM21.182 22.162c-0.023 0.226-0.121 0.425-0.27 0.575l0-0c-0.14 0.142-0.334 0.231-0.548 0.235h-0.083c-1.285-0.15-2.773-0.236-4.282-0.236s-2.997 0.086-4.461 0.253l0.179-0.017c-0.025 0.003-0.055 0.005-0.085 0.005-0.198 0-0.378-0.075-0.514-0.198l0.001 0.001c-0.167-0.152-0.278-0.362-0.301-0.598l-0-0.004c-0.002-0.025-0.004-0.054-0.004-0.083 0-0.217 0.071-0.418 0.19-0.58l-0.002 0.003c0.129-0.176 0.323-0.298 0.547-0.329l0.004-0c1.334-0.165 2.879-0.259 4.445-0.259s3.111 0.094 4.628 0.277l-0.183-0.018c0.214 0.026 0.409 0.143 0.547 0.324s0.205 0.415 0.189 0.65z"></path>
</symbol>
<symbol id="icon-science" viewBox="0 0 32 32">
<path d="M16.067 0.073c-1.145 0-2.215 0.521-3.127 1.375s-1.692 2.044-2.343 3.485c-0.136 0.302-0.266 0.616-0.391 0.94-0.239-0.042-0.585-0.088-0.933-0.124l-0.078-0.007c-0.329-0.036-0.728-0.062-1.131-0.072l-0.020-0c-1.12-0.027-2.143 0.087-3.040 0.359-1.196 0.363-2.182 1.028-2.755 2.020s-0.656 2.18-0.372 3.396c0.284 1.217 0.924 2.487 1.847 3.772 0.193 0.269 0.4 0.539 0.618 0.809-0.184 0.225-0.387 0.488-0.582 0.757l-0.036 0.052c-0.923 1.284-1.563 2.555-1.847 3.772s-0.2 2.404 0.372 3.396c0.573 0.991 1.56 1.657 2.756 2.020s2.616 0.444 4.189 0.287c0.33-0.033 0.667-0.077 1.010-0.131 0.121 0.317 0.252 0.631 0.391 0.941 0.651 1.441 1.431 2.631 2.343 3.485s1.982 1.376 3.127 1.376 2.215-0.522 3.127-1.376c0.911-0.855 1.692-2.044 2.342-3.485 0.14-0.31 0.271-0.624 0.393-0.941 0.342 0.054 0.679 0.098 1.008 0.131 1.574 0.157 2.995 0.076 4.19-0.287 1.196-0.362 2.183-1.028 2.756-2.020s0.655-2.179 0.372-3.396c-0.284-1.216-0.924-2.487-1.847-3.771-0.232-0.321-0.434-0.584-0.644-0.842l0.026 0.033c0.214-0.264 0.42-0.534 0.618-0.809 0.924-1.284 1.564-2.555 1.847-3.772s0.201-2.404-0.372-3.396c-0.573-0.992-1.56-1.658-2.755-2.020-0.897-0.271-1.92-0.385-3.040-0.359-0.423 0.011-0.822 0.037-1.216 0.078l0.066-0.006c-0.329 0.033-0.667 0.077-1.010 0.131-0.165-0.437-0.297-0.747-0.437-1.053l0.046 0.113c-0.651-1.441-1.431-2.631-2.343-3.485s-1.982-1.376-3.128-1.376zM16.067 1.346c0.764 0 1.513 0.336 2.256 1.032 0.742 0.696 1.452 1.749 2.052 3.079 0.097 0.217 0.191 0.436 0.279 0.657-1.46 0.325-3.007 0.823-4.588 1.489-1.58-0.665-3.127-1.164-4.587-1.488 0.090-0.225 0.183-0.446 0.279-0.658 0.601-1.331 1.311-2.384 2.053-3.080s1.492-1.031 2.256-1.031zM7.64 6.941c0.019-0 0.041-0 0.063-0 0.481 0 0.955 0.025 1.423 0.073l-0.059-0.005c0.233 0.023 0.47 0.053 0.711 0.087-0.449 1.428-0.791 3.015-1.006 4.717-1.367 1.036-2.572 2.127-3.583 3.229-0.121-0.151-0.263-0.337-0.4-0.526l-0.031-0.045c-0.852-1.185-1.409-2.327-1.641-3.318s-0.148-1.807 0.235-2.469c0.382-0.662 1.047-1.142 2.021-1.438 0.639-0.193 1.404-0.298 2.265-0.305zM24.492 6.941c0.861 0.008 1.626 0.113 2.265 0.306 0.975 0.295 1.639 0.776 2.022 1.438s0.465 1.479 0.234 2.469c-0.231 0.991-0.788 2.132-1.641 3.318-0.139 0.193-0.284 0.384-0.431 0.572-1.011-1.103-2.215-2.193-3.582-3.229-0.214-1.702-0.556-3.29-1.005-4.717 0.24-0.035 0.478-0.065 0.71-0.088 0.41-0.044 0.885-0.069 1.366-0.069 0.022 0 0.043 0 0.065 0h-0.003zM21.089 7.326c0.318 0.953 0.606 2.118 0.809 3.311l0.020 0.146c-1.203-0.826-2.59-1.64-4.035-2.356l-0.202-0.091c0.932-0.367 2.072-0.714 3.242-0.979l0.166-0.031zM11.045 7.326c1.080 0.233 2.225 0.571 3.407 1.011-1.646 0.806-3.034 1.62-4.355 2.522l0.119-0.077c0.223-1.339 0.511-2.503 0.878-3.631l-0.049 0.175zM16.066 8.993c1.266 0.561 2.296 1.094 3.292 1.678l-0.153-0.083c1.050 0.606 2.036 1.252 2.951 1.921 0.123 1.127 0.189 2.304 0.189 3.516 0 1.211-0.066 2.388-0.189 3.514-0.836 0.619-1.799 1.254-2.796 1.837l-0.154 0.083c-0.843 0.501-1.873 1.034-2.933 1.512l-0.206 0.083c-1.266-0.561-2.296-1.094-3.292-1.678l0.154 0.083c-1.151-0.666-2.114-1.301-3.040-1.983l0.090 0.063c-0.12-1.050-0.188-2.267-0.188-3.5 0-0.006 0-0.011 0-0.017v0.001c0-1.212 0.065-2.389 0.188-3.516 0.836-0.619 1.799-1.254 2.796-1.837l0.154-0.083c0.843-0.501 1.873-1.034 2.933-1.511l0.206-0.083zM16.153 10.911l-3.648 2.252 3.648 2.251 3.647-2.251-3.647-2.252zM8.601 13.58c-0.055 0.732-0.086 1.585-0.086 2.446s0.031 1.714 0.093 2.559l-0.007-0.113c-0.937-0.772-1.779-1.572-2.562-2.428l-0.017-0.019c0.8-0.874 1.642-1.674 2.537-2.412l0.042-0.034zM23.533 13.58c0.937 0.772 1.779 1.572 2.561 2.427l0.017 0.019c-0.799 0.874-1.641 1.673-2.536 2.411l-0.042 0.034c0.055-0.732 0.086-1.585 0.086-2.445s-0.031-1.714-0.093-2.559l0.007 0.113zM11.683 14.152v4.445l3.831 2.364v-4.445l-3.831-2.364zM20.619 14.154l-3.831 2.364v4.444l3.831-2.364v-4.444zM5.191 17.007c1.011 1.103 2.216 2.193 3.583 3.229 0.214 1.702 0.556 3.289 1.005 4.716-0.24 0.035-0.478 0.064-0.71 0.087-1.452 0.145-2.719 0.058-3.693-0.238s-1.639-0.776-2.022-1.438c-0.381-0.662-0.465-1.478-0.234-2.469s0.789-2.132 1.641-3.318c0.139-0.193 0.283-0.383 0.431-0.57zM26.942 17.007c0.151 0.191 0.295 0.381 0.431 0.57 0.852 1.185 1.409 2.327 1.641 3.318s0.148 1.807-0.235 2.469c-0.382 0.662-1.047 1.143-2.021 1.438s-2.24 0.383-3.693 0.238c-0.237-0.024-0.473-0.053-0.709-0.087 0.449-1.428 0.791-3.016 1.005-4.718 1.367-1.035 2.571-2.126 3.582-3.228zM21.918 21.268c-0.223 1.339-0.511 2.503-0.878 3.632l0.049-0.175c-1.336-0.296-2.475-0.644-3.576-1.068l0.169 0.057c1.647-0.807 3.034-1.621 4.356-2.523l-0.12 0.077zM10.216 21.268c1.202 0.826 2.589 1.639 4.033 2.355l0.202 0.091c-0.932 0.367-2.071 0.715-3.242 0.979l-0.165 0.031c-0.318-0.953-0.606-2.117-0.808-3.31l-0.020-0.146zM16.104 21.326l0.047 0.029 0.047-0.029h-0.092zM16.066 24.447c1.581 0.665 3.127 1.164 4.588 1.488-0.088 0.222-0.182 0.441-0.279 0.66-0.601 1.33-1.31 2.383-2.053 3.079-0.742 0.696-1.491 1.031-2.255 1.031s-1.513-0.335-2.256-1.031c-0.743-0.696-1.452-1.749-2.053-3.079-0.097-0.218-0.191-0.438-0.279-0.66 1.46-0.324 3.007-0.823 4.588-1.488z"></path>
</symbol>
<symbol id="Star-big" viewBox="0 0 32 32">
<path d="M6.693 0l10.657 10.184 14.322-3.491-10.184 10.658 3.491 14.322-10.657-10.184-14.322 3.491 10.184-10.657-3.491-14.322z"></path>
</symbol>
<symbol id="Star-middle" viewBox="0 0 32 32">
<path d="M24.978 0l-3.491 14.321 10.184 10.657-14.321-3.491-10.658 10.184 3.491-14.321-10.183-10.658 14.321 3.491 10.657-10.183z"></path>
</symbol>
<symbol id="Star-small" viewBox="0 0 32 32">
<path d="M9.964 1.136l8.156 9.994 12.812-1.482-9.996 8.152 1.484 12.812-8.154-9.994-12.812 1.484 9.994-8.154-1.484-12.812z"></path>
</symbol>
<symbol id="icon-arrow" viewBox="0 0 36 32">
<path d="M1.062 17.414c-0.362-0.362-0.586-0.862-0.586-1.414s0.224-1.052 0.586-1.414l12.728-12.728c0.364-0.377 0.874-0.611 1.439-0.611 1.105 0 2 0.895 2 2 0 0.565-0.234 1.074-0.61 1.438l-0.001 0.001-11.314 11.314 11.314 11.314c0.377 0.364 0.611 0.874 0.611 1.439 0 1.105-0.895 2-2 2-0.565 0-1.074-0.234-1.438-0.61l-0.001-0.001-12.73-12.728zM36 18h-33.524v-4h33.524v4z"></path>
</symbol>
<symbol id="icon-facebook" viewBox="0 0 32 32">
<path d="M23.987 2.128c-1.181-0.133-2.549-0.208-3.936-0.208-0.040 0-0.080 0-0.12 0h0.006c-4.484 0-7.27 2.856-7.27 7.453v3.122h-3.767c0 0 0 0 0 0-0.368 0-0.666 0.298-0.667 0.666v5.134c0.001 0.368 0.299 0.666 0.667 0.666 0 0 0 0 0 0h3.767v10.294c0.001 0.368 0.298 0.665 0.666 0.666h5.304c0 0 0 0 0 0 0.368 0 0.666-0.298 0.667-0.666v-10.295h3.755c0.338-0 0.616-0.251 0.661-0.577l0-0.003 0.663-5.133c0.004-0.026 0.006-0.057 0.006-0.088 0-0.367-0.298-0.665-0.665-0.665-0.001 0-0.002 0-0.003 0h-4.417v-2.611c0-1.294 0.26-1.834 1.877-1.834h2.72c0.368-0.001 0.665-0.298 0.666-0.666v-4.594c-0.001-0.337-0.251-0.616-0.577-0.66l-0.003-0zM23.233 6.715l-2.053 0.001c-2.876 0-3.21 1.808-3.21 3.167v3.28c0.001 0.368 0.298 0.665 0.666 0.666h4.328l-0.492 3.8h-3.835c-0.368 0.001-0.666 0.299-0.666 0.667 0 0 0 0 0 0v0 10.29h-3.971v-10.29c0 0 0 0 0 0 0-0.368-0.299-0.667-0.667-0.667-0 0-0.001 0-0.001 0h-3.764v-3.8h3.765c0 0 0 0 0 0 0.368 0 0.666-0.298 0.667-0.666v-3.79c0-3.832 2.22-6.12 5.937-6.12 1.346 0 2.56 0.074 3.296 0.138v3.324z"></path>
</symbol>
<symbol id="icon-instagram" viewBox="0 0 32 32">
<path d="M16 10.25c-3.176 0-5.75 2.574-5.75 5.75s2.574 5.75 5.75 5.75v0c3.176 0 5.75-2.574 5.75-5.75s-2.574-5.75-5.75-5.75v0zM16 20.25c-2.347 0-4.25-1.903-4.25-4.25s1.903-4.25 4.25-4.25c2.347 0 4.25 1.903 4.25 4.25v0c-0.007 2.344-1.906 4.243-4.249 4.25h-0.001zM21.5 3.75h-11c-3.728 0-6.75 3.022-6.75 6.75v0 11c0 3.728 3.022 6.75 6.75 6.75v0h11c3.728 0 6.75-3.022 6.75-6.75v0-11c0-3.728-3.022-6.75-6.75-6.75v0zM26.75 21.5c0 2.899-2.351 5.25-5.25 5.25v0h-11c-2.899 0-5.25-2.351-5.25-5.25v0-11c0-2.899 2.351-5.25 5.25-5.25v0h11c2.899 0 5.25 2.351 5.25 5.25v0 11zM23.75 9.5c0 0.69-0.56 1.25-1.25 1.25s-1.25-0.56-1.25-1.25v0c0-0.69 0.56-1.25 1.25-1.25s1.25 0.56 1.25 1.25v0z"></path>
</symbol>
<symbol id="icon-telephone" viewBox="0 0 28 32">
<path d="M25.655 22.957l-0.173-0.216c-1.372-1.734-2.52-2.637-3.503-2.756-0.85-0.116-1.673 0.472-2.548 1.078l-0.935 0.584c-0.092 0.048-0.2 0.093-0.312 0.128l-0.014 0.004c-0.547 0.154-1.927 0.245-2.708-0.47-0.91-0.832-2.32-2.354-3.418-3.685-1.048-1.377-2.2-3.095-2.801-4.176-0.508-0.916-0.083-2.197 0.201-2.672 0.056-0.093 0.13-0.185 0.21-0.276l0.825-0.761c0.012-0.012 0.017-0.027 0.028-0.038 0.008-0.008 0.021-0.005 0.030-0.012 0.745-0.628 1.514-1.274 1.62-2.105 0.123-0.976-0.483-2.296-1.858-4.030l-0.168-0.215c-0.851-1.091-2.137-2.74-3.985-2.469-0.727 0.108-1.376 0.356-2.046 0.776-0.006 0.004-0.010 0.012-0.016 0.016-0.005 0.004-0.012 0.004-0.017 0.008l-0.932 0.69c-0.010 0.006-0.015 0.018-0.024 0.026-0.007 0.006-0.017 0.008-0.025 0.014-0.127 0.107-0.232 0.198-0.336 0.291l0.013-0.011c-0.945 0.843-2.992 3.29-1.596 7.815 0.901 2.923 2.76 6.333 5.388 9.883l-0.025 0.021 1.449 1.805 0.012-0.009c2.85 3.37 5.75 5.976 8.407 7.553 1.773 1.054 3.322 1.402 4.597 1.402 1.677 0 2.879-0.603 3.481-0.995l0.379-0.253c0.043-0.030 0.073-0.071 0.104-0.108l0.825-0.622c0.010-0.008 0.015-0.018 0.024-0.026 0.004-0.004 0.010-0.003 0.016-0.007 0.587-0.536 0.994-1.097 1.276-1.763 0.732-1.705-0.578-3.338-1.445-4.42zM26.12 26.959c-0.22 0.517-0.541 0.957-1.005 1.384l-1.228 0.924c-1.112 0.722-3.49 1.616-6.943-0.435-2.657-1.577-5.582-4.244-8.461-7.712l-0.779-0.984c-2.71-3.595-4.617-7.037-5.517-9.955-1.17-3.793 0.304-5.828 1.29-6.706 0.1-0.091 0.2-0.175 0.3-0.259l0.003-0.004 0.895-0.663c0.463-0.309 1.013-0.529 1.605-0.621l0.023-0.003c1.239-0.186 2.247 1.12 2.987 2.070l0.173 0.22c1.536 1.937 1.684 2.858 1.636 3.234-0.053 0.418-0.688 0.952-1.248 1.423l-0.079 0.067-0.006 0.009-0.012 0.007-0.852 0.788c-0.006 0.005-0.008 0.012-0.014 0.018s-0.016 0.010-0.021 0.016c-0.121 0.133-0.232 0.28-0.33 0.437l-0.007 0.013c-0.48 0.801-0.931 2.457-0.218 3.738 0.623 1.12 1.808 2.89 2.898 4.319 1.138 1.381 2.59 2.95 3.532 3.81 0.705 0.643 1.686 0.86 2.536 0.86 0.454 0 0.872-0.063 1.188-0.153 0.166-0.048 0.338-0.117 0.516-0.204 0.010-0.005 0.016-0.014 0.026-0.021 0.006-0.003 0.014-0.001 0.019-0.005l0.99-0.619c0.031-0.021 0.053-0.050 0.080-0.076l0.011 0.013c0.61-0.422 1.304-0.918 1.739-0.846 0.385 0.046 1.26 0.417 2.799 2.36l0.177 0.222c0.75 0.935 1.776 2.215 1.297 3.334z"></path>
</symbol>
</defs>
</svg>
